<svg width="660" height="660" viewBox="0 0 660 660" fill="none" xmlns="http://www.w3.org/2000/svg">
<path d="M496.822 493.37C406.856 585.377 259.338 587.032 167.331 497.066C75.3242 407.1 73.6697 259.581 163.636 167.575C253.602 75.5677 401.12 73.9132 493.127 163.879C585.134 253.845 586.788 401.363 496.822 493.37Z" fill="#4FA9BC"/>
<path d="M373.5 258.75V168H274.5V258.75L324 308.25L373.5 258.75ZM249.75 283.5H159V382.5H249.75L299.25 333L249.75 283.5ZM274.5 407.25V498H373.5V407.25L324 357.75L274.5 407.25ZM398.25 283.5L348.75 333L398.25 382.5H489V283.5H398.25Z" fill="#88CED8"/>
<path d="M486.25 369.25H409.75C405.075 369.25 401.25 372.437 401.25 376.333V404.667C401.25 408.563 405.075 411.75 409.75 411.75H486.25C490.925 411.75 494.75 408.563 494.75 404.667V376.333C494.75 372.437 490.925 369.25 486.25 369.25ZM486.25 404.667H409.75V376.333H486.25V404.667ZM422.5 401.125H431V394.042H439.5V386.958H431V379.875H422.5V386.958H414V394.042H422.5V401.125Z" fill="#0E0034"/>
<path d="M458.625 401.125C462.146 401.125 465 398.747 465 395.812C465 392.878 462.146 390.5 458.625 390.5C455.104 390.5 452.25 392.878 452.25 395.812C452.25 398.747 455.104 401.125 458.625 401.125Z" fill="#0E0034"/>
<path d="M475.625 390.5C479.146 390.5 482 388.122 482 385.188C482 382.253 479.146 379.875 475.625 379.875C472.104 379.875 469.25 382.253 469.25 385.188C469.25 388.122 472.104 390.5 475.625 390.5Z" fill="#0E0034"/>
<path d="M146.256 360L133.68 325.44H141.6L149.136 346.032L156.672 325.44H163.536L171.12 346.032L178.656 325.44H186.528L173.952 360H168.24L160.08 337.776L151.968 360H146.256ZM203.991 360C202.711 360 201.527 359.68 200.439 359.04C199.351 358.4 198.487 357.536 197.847 356.448C197.207 355.36 196.887 354.176 196.887 352.896V332.544C196.887 331.232 197.207 330.048 197.847 328.992C198.487 327.904 199.351 327.04 200.439 326.4C201.527 325.76 202.711 325.44 203.991 325.44H224.343C225.623 325.44 226.791 325.76 227.847 326.4C228.935 327.04 229.799 327.904 230.439 328.992C231.111 330.048 231.447 331.232 231.447 332.544V352.896C231.447 354.176 231.111 355.36 230.439 356.448C229.799 357.536 228.935 358.4 227.847 359.04C226.791 359.68 225.623 360 224.343 360H203.991ZM204.327 352.512H223.911V332.928H204.327V352.512ZM271.485 360L261.453 348.048H271.197L279.165 357.456V360H271.485ZM244.653 360V325.488H272.061C273.373 325.488 274.557 325.808 275.613 326.448C276.701 327.088 277.565 327.952 278.205 329.04C278.877 330.128 279.213 331.312 279.213 332.592V341.52C279.213 342.8 278.877 343.984 278.205 345.072C277.565 346.16 276.701 347.024 275.613 347.664C274.557 348.304 273.373 348.624 272.061 348.624L252.093 348.672V360H244.653ZM252.093 341.136H271.677V332.928H252.093V341.136ZM292.23 360V325.44H299.718V338.976H306.486L317.814 325.44H325.59V328.032L313.254 342.72L325.59 357.408V360H317.814L306.486 346.464H299.718V360H292.23ZM338.352 360V325.488H365.76C367.072 325.488 368.256 325.808 369.312 326.448C370.4 327.088 371.264 327.952 371.904 329.04C372.576 330.128 372.912 331.312 372.912 332.592V341.52C372.912 342.8 372.576 343.984 371.904 345.072C371.264 346.16 370.4 347.024 369.312 347.664C368.256 348.304 367.072 348.624 365.76 348.624L345.792 348.672V360H338.352ZM345.792 341.136H365.376V332.928H345.792V341.136ZM384.289 360V325.392H391.729V352.512H418.849V360H384.289ZM429.663 360V332.544C429.663 331.232 429.983 330.048 430.623 328.992C431.263 327.904 432.127 327.04 433.215 326.4C434.303 325.76 435.487 325.44 436.767 325.44H457.071C458.383 325.44 459.567 325.76 460.623 326.4C461.711 327.04 462.575 327.904 463.215 328.992C463.887 330.048 464.223 331.232 464.223 332.544V360H456.687V348.864H437.103V360H429.663ZM437.103 341.376H456.687V332.928H437.103V341.376ZM489.492 360V347.088L473.508 325.44H482.388L493.236 339.072L504.036 325.44H513.012L496.98 347.136V360H489.492Z" fill="#0E0034"/>
<g clip-path="url(#clip0_2_1201)">
<path d="M177.667 276H225.667V270.667H177.667C174.733 270.667 172.333 273.067 172.333 276V305.333H167V313.333H204.333V305.333H177.667V276ZM228.333 281.333H212.333C210.867 281.333 209.667 282.533 209.667 284V310.667C209.667 312.133 210.867 313.333 212.333 313.333H228.333C229.8 313.333 231 312.133 231 310.667V284C231 282.533 229.8 281.333 228.333 281.333ZM225.667 305.333H215V286.667H225.667V305.333Z" fill="#0E0034"/>
</g>
<defs>
<clipPath id="clip0_2_1201">
<rect width="64" height="64" fill="white" transform="translate(167 260)"/>
</clipPath>
</defs>
</svg>
